<svg viewBox="383 182.4871 380 107.0257" width="5000" height="1408.2328947368421" xmlns="http://www.w3.org/2000/svg" xmlns:xlink="http://www.w3.org/1999/xlink" preserveAspectRatio="none"><defs></defs><style>.abTUYkkdPfillColor {fill:#FFFFFF;fill-opacity:1;}.abTUYkkdPstrokeColor-str {stroke:#D9D9D9;stroke-opacity:1;}.aD6z1nYkhcolor {fill:#FFFFFF;fill-opacity:1;}.aD6z1nYkhstrokeColor-str {stroke:#D9D9D9;stroke-opacity:1;}</style><g opacity="1" transform="rotate(0 383 221.4056)">
<svg width="380" height="68.1072" x="383" y="221.4056" version="1.1" preserveAspectRatio="none" viewBox="0.52 -32.84 186.79999999999998 33.480000000000004">
  <g transform="matrix(1 0 0 1 0 0)" class="aD6z1nYkhcolor"><path id="id-D6z1nYkh9" d="M12.72 0.64Q9.24 0.64 5.94-0.14Q2.64-0.92 0.52-2.24L0.52-2.24L3.56-9.12Q5.56-7.96 8.04-7.26Q10.52-6.56 12.80-6.56L12.80-6.56Q14.76-6.56 15.60-6.94Q16.44-7.32 16.44-8.08L16.44-8.08Q16.44-8.96 15.34-9.40Q14.24-9.84 11.72-10.36L11.72-10.36Q8.48-11.04 6.32-11.82Q4.16-12.60 2.56-14.38Q0.96-16.16 0.96-19.20L0.96-19.20Q0.96-21.84 2.44-24Q3.92-26.16 6.86-27.40Q9.80-28.64 14-28.64L14-28.64Q16.88-28.64 19.66-28.02Q22.44-27.40 24.56-26.20L24.56-26.20L21.72-19.36Q17.60-21.44 13.92-21.44L13.92-21.44Q10.28-21.44 10.28-19.68L10.28-19.68Q10.28-18.84 11.36-18.42Q12.44-18 14.92-17.52L14.92-17.52Q18.12-16.92 20.32-16.14Q22.52-15.36 24.14-13.60Q25.76-11.84 25.76-8.80L25.76-8.80Q25.76-6.16 24.28-4.02Q22.80-1.88 19.86-0.62Q16.92 0.64 12.72 0.64L12.72 0.64Z M42.24-7.04L44.40-0.76Q42.36 0.40 38.84 0.40L38.84 0.40Q34.24 0.40 31.76-1.82Q29.28-4.04 29.28-8.48L29.28-8.48L29.28-14.08L26.28-14.08L26.28-20.68L29.28-20.68L29.28-26.80L38.32-26.80L38.32-20.68L42.80-20.68L42.80-14.08L38.32-14.08L38.32-8.56Q38.32-7.56 38.84-7Q39.36-6.44 40.20-6.44L40.20-6.44Q41.36-6.44 42.24-7.04L42.24-7.04Z M56.48-22.28Q62.24-22.28 65.28-19.70Q68.32-17.12 68.32-11.76L68.32-11.76L68.32 0L59.92 0L59.92-2.88Q58.36 0.40 53.72 0.40L53.72 0.40Q51.12 0.40 49.30-0.50Q47.48-1.40 46.54-2.94Q45.60-4.48 45.60-6.40L45.60-6.40Q45.60-9.64 48.08-11.32Q50.56-13 55.60-13L55.60-13L59.24-13Q58.80-15.56 55.12-15.56L55.12-15.56Q53.64-15.56 52.12-15.10Q50.60-14.64 49.52-13.84L49.52-13.84L46.64-19.80Q48.52-20.96 51.18-21.62Q53.84-22.28 56.48-22.28L56.48-22.28ZM56.44-5.04Q57.40-5.04 58.16-5.56Q58.92-6.08 59.28-7.12L59.28-7.12L59.28-8.64L57.04-8.64Q54.28-8.64 54.28-6.80L54.28-6.80Q54.28-6.04 54.86-5.54Q55.44-5.04 56.44-5.04L56.44-5.04Z M80.84-19.52Q83.24-22.28 87.92-22.28L87.92-22.28L87.92-14.28Q86.84-14.44 85.92-14.44L85.92-14.44Q81.28-14.44 81.28-9.72L81.28-9.72L81.28 0L72.24 0L72.24-21.88L80.84-21.88L80.84-19.52Z M105.04-7.04L107.20-0.76Q105.16 0.40 101.64 0.40L101.64 0.40Q97.04 0.40 94.56-1.82Q92.08-4.04 92.08-8.48L92.08-8.48L92.08-14.08L89.08-14.08L89.08-20.68L92.08-20.68L92.08-26.80L101.12-26.80L101.12-20.68L105.60-20.68L105.60-14.08L101.12-14.08L101.12-8.56Q101.12-7.56 101.64-7Q102.16-6.44 103.00-6.44L103.00-6.44Q104.16-6.44 105.04-7.04L105.04-7.04Z M109.48 0L109.48-29.68L118.52-29.68L118.52 0L109.48 0Z M122.52 0L122.52-21.88L131.56-21.88L131.56 0L122.52 0ZM127.04-23.64Q124.60-23.64 123.10-24.94Q121.60-26.24 121.60-28.24L121.60-28.24Q121.60-30.24 123.10-31.54Q124.60-32.84 127.04-32.84L127.04-32.84Q129.52-32.84 131.00-31.60Q132.48-30.36 132.48-28.40L132.48-28.40Q132.48-26.32 131.00-24.98Q129.52-23.64 127.04-23.64L127.04-23.64Z M150.76-22.28Q154.80-22.28 157.26-19.84Q159.72-17.40 159.72-12.48L159.72-12.48L159.72 0L150.68 0L150.68-10.92Q150.68-14.68 148.00-14.68L148.00-14.68Q146.48-14.68 145.54-13.62Q144.60-12.56 144.60-10.28L144.60-10.28L144.60 0L135.56 0L135.56-21.88L144.16-21.88L144.16-19.72Q145.44-21 147.12-21.64Q148.80-22.28 150.76-22.28L150.76-22.28Z M187.32-10.96Q187.32-10.76 187.20-8.84L187.20-8.84L172.00-8.84Q172.48-7.60 173.60-6.94Q174.72-6.28 176.40-6.28L176.40-6.28Q177.84-6.28 178.82-6.64Q179.80-7 180.96-7.88L180.96-7.88L185.68-3.12Q182.48 0.40 176.12 0.40L176.12 0.40Q172.16 0.40 169.16-1.06Q166.16-2.52 164.52-5.12Q162.88-7.72 162.88-10.96L162.88-10.96Q162.88-14.24 164.50-16.82Q166.12-19.40 168.94-20.84Q171.76-22.28 175.28-22.28L175.28-22.28Q178.60-22.28 181.34-20.96Q184.08-19.64 185.70-17.08Q187.32-14.52 187.32-10.96L187.32-10.96ZM175.36-16.12Q173.96-16.12 173.04-15.36Q172.12-14.60 171.84-13.20L171.84-13.20L178.88-13.20Q178.60-14.56 177.68-15.34Q176.76-16.12 175.36-16.12L175.36-16.12Z"/></g>
</svg>
</g><g opacity="1" transform="rotate(0 383 182.4871)">
<svg width="126.485" height="21.4052" x="383" y="182.4871" version="1.1" preserveAspectRatio="none" viewBox="0 0 126.485 21.4052">
  <defs><rect x="0" y="0" width="126.485" height="21.4052" rx="0%" ry="0%" id="id-bTUYkkdP"></rect></defs><use class="abTUYkkdPfillColor abTUYkkdPstrokeColor-str" style="stroke-width:0;" xlink:href="#id-bTUYkkdP"></use>
</svg>
</g></svg>